<svg width="19px" height="22px" viewBox="0 0 19 22" version="1.1" xmlns="http://www.w3.org/2000/svg" xmlns:xlink="http://www.w3.org/1999/xlink">
    <!-- Generator: Sketch 51.3 (57544) - http://www.bohemiancoding.com/sketch -->
    <desc>Created with Sketch.</desc>
    <defs></defs>
    <g id="Designs" stroke="none" stroke-width="1" fill="none" fill-rule="evenodd">
        <g id="homepage-XL" transform="translate(-888.000000, -3238.000000)" fill="#000000" fill-rule="nonzero">
            <g id="Group-7" transform="translate(822.018186, 3144.213730)">
                <g id="Group-19-Copy" transform="translate(45.863125, 22.332389)">
                    <g id="Icons/File/Dark" transform="translate(20.631959, 72.126581)">
                        <path d="M1.82454,0 C0.808340507,0 0,0.788847943 0,1.7805425 L0,19.1126587 C0,20.1043533 0.808340507,20.8932012 1.82454,20.8932012 L15.8896648,20.8932012 C16.9058643,20.8932012 17.7142048,20.1043533 17.7142048,19.1126587 L17.7142048,6.69393825 C17.7142048,6.4234761 17.5987276,6.15301395 17.3908686,5.95016734 L11.2474808,0.293000664 C11.0396218,0.112692563 10.8086673,0.0225385126 10.531522,0.0225385126 L1.82454,0.0225385126 L1.82454,0 Z M11.5939124,3.40331541 L14.0420294,5.67970519 L11.5939124,5.67970519 L11.5939124,3.40331541 Z M15.6125195,7.70817132 L15.6125195,18.8647351 L2.07858987,18.8647351 L2.07858987,2.05100465 L9.4922271,2.05100465 L9.4922271,6.69393825 C9.4922271,7.25740107 9.95413596,7.70817132 10.531522,7.70817132 L15.6125195,7.70817132 Z" id="Shape"></path>
                    </g>
                </g>
            </g>
        </g>
    </g>
</svg>
