<svg width="14px" height="23px" viewBox="0 0 14 23" version="1.1" xmlns="http://www.w3.org/2000/svg" xmlns:xlink="http://www.w3.org/1999/xlink">
    <!-- Generator: Sketch 51.3 (57544) - http://www.bohemiancoding.com/sketch -->
    <desc>Created with Sketch.</desc>
    <defs></defs>
    <g id="Designs" stroke="none" stroke-width="1" fill="none" fill-rule="evenodd">
        <g id="homepage-XL" transform="translate(-411.000000, -2970.000000)" fill="#FFFFFF">
            <g id="Group-6-Copy" transform="translate(374.812435, 2758.501533)">
                <g id="Group-5" transform="translate(0.832478, 198.000000)">
                    <path d="M34.071694,28.746224 L44.9461697,28.746224 C46.216193,28.746224 47.2457502,29.7757813 47.2457502,31.0458046 C47.2457502,32.3158278 46.216193,33.3453851 44.9461697,33.3453851 L33.5453308,33.3453851 C33.0320167,33.3453851 32.5579849,33.1771977 32.1753359,32.8929233 C32.0444181,32.9160785 31.9096764,32.9281575 31.7721135,32.9281575 C30.5020902,32.9281575 29.4725329,31.8986002 29.4725329,30.628577 L29.4725329,19.227738 C29.4725329,17.9577148 30.5020902,16.9281575 31.7721135,16.9281575 C33.0421367,16.9281575 34.071694,17.9577148 34.071694,19.227738 L34.071694,28.746224 Z" id="Combined-Shape-Copy" transform="translate(38.359142, 25.136771) scale(-1, 1) rotate(-315.000000) translate(-38.359142, -25.136771) "></path>
                </g>
            </g>
        </g>
    </g>
</svg>
