<svg width="24px" height="14px" viewBox="0 0 24 14" version="1.1" xmlns="http://www.w3.org/2000/svg" xmlns:xlink="http://www.w3.org/1999/xlink">
    <!-- Generator: Sketch 51.3 (57544) - http://www.bohemiancoding.com/sketch -->
    <desc>Created with Sketch.</desc>
    <defs></defs>
    <g id="Designs" stroke="none" stroke-width="1" fill="none" fill-rule="evenodd">
        <g id="homepage-XL" transform="translate(-409.000000, -2780.000000)" fill="#FFFFFF">
            <g id="Group-6-Copy" transform="translate(374.812435, 2758.501533)">
                <g id="Group-3" transform="translate(0.610826, 0.000000)">
                    <path d="M41.3168056,28.2537618 L52.1912812,28.2537618 C53.4613045,28.2537618 54.4908618,29.2833191 54.4908618,30.5533424 C54.4908618,31.8233656 53.4613045,32.8529229 52.1912812,32.8529229 L40.7904423,32.8529229 C40.2771283,32.8529229 39.8030965,32.6847355 39.4204474,32.4004612 C39.2895297,32.4236163 39.1547879,32.4356953 39.017225,32.4356953 C37.7472018,32.4356953 36.7176445,31.406138 36.7176445,30.1361148 L36.7176445,18.7352759 C36.7176445,17.4652526 37.7472018,16.4356953 39.017225,16.4356953 C40.2872483,16.4356953 41.3168056,17.4652526 41.3168056,18.7352759 L41.3168056,28.2537618 Z" id="Combined-Shape" transform="translate(45.604253, 24.644309) scale(-1, 1) rotate(-45.000000) translate(-45.604253, -24.644309) "></path>
                </g>
            </g>
        </g>
    </g>
</svg>
